<?xml version="1.0" encoding="UTF-8" standalone="no"?>
<!DOCTYPE svg PUBLIC "-//W3C//DTD SVG 1.1//EN"
 "http://www.w3.org/Graphics/SVG/1.1/DTD/svg11.dtd">
<!-- Generated by graphviz version 2.38.0 (20140413.2041)
 -->
<!-- Title: diagram Pages: 1 -->
<svg width="987pt" height="629pt"
 viewBox="0.00 0.00 987.00 629.00" xmlns="http://www.w3.org/2000/svg" xmlns:xlink="http://www.w3.org/1999/xlink">
<g id="graph0" class="graph" transform="scale(1 1) rotate(0) translate(4 625)">
<title>diagram</title>
<polygon fill="white" stroke="none" points="-4,4 -4,-625 983,-625 983,4 -4,4"/>
<!-- scala.Immutable -->
<g id="node1" class="node"><title>scala.Immutable</title>
<polygon fill="none" stroke="black" points="712.5,-219.5 712.5,-255.5 819.5,-255.5 819.5,-219.5 712.5,-219.5"/>
<text text-anchor="middle" x="766" y="-233.8" font-family="Times New Roman,serif" font-size="14.00">scala.Immutable</text>
</g>
<!-- AbstractIterable -->
<g id="node2" class="node"><title>AbstractIterable</title>
<polygon fill="none" stroke="black" points="485,-365.5 485,-401.5 591,-401.5 591,-365.5 485,-365.5"/>
<text text-anchor="middle" x="538" y="-379.8" font-family="Times New Roman,serif" font-size="14.00">AbstractIterable</text>
</g>
<!-- AbstractTraversable -->
<g id="node5" class="node"><title>AbstractTraversable</title>
<polygon fill="none" stroke="black" points="527,-292.5 527,-328.5 657,-328.5 657,-292.5 527,-292.5"/>
<text text-anchor="middle" x="592" y="-306.8" font-family="Times New Roman,serif" font-size="14.00">AbstractTraversable</text>
</g>
<!-- AbstractIterable&#45;&gt;AbstractTraversable -->
<g id="edge4" class="edge"><title>AbstractIterable&#45;&gt;AbstractTraversable</title>
<path fill="none" stroke="black" d="M551.072,-365.313C557.638,-356.679 565.719,-346.055 572.96,-336.534"/>
<polygon fill="black" stroke="black" points="575.781,-338.607 579.048,-328.529 570.209,-334.37 575.781,-338.607"/>
</g>
<!-- Iterable -->
<g id="node19" class="node"><title>Iterable</title>
<polygon fill="none" stroke="black" points="451,-292.5 451,-328.5 509,-328.5 509,-292.5 451,-292.5"/>
<text text-anchor="middle" x="480" y="-306.8" font-family="Times New Roman,serif" font-size="14.00">Iterable</text>
</g>
<!-- AbstractIterable&#45;&gt;Iterable -->
<g id="edge5" class="edge"><title>AbstractIterable&#45;&gt;Iterable</title>
<path fill="none" stroke="black" d="M523.96,-365.313C516.907,-356.679 508.228,-346.055 500.45,-336.534"/>
<polygon fill="black" stroke="black" points="502.948,-334.059 493.911,-328.529 497.527,-338.488 502.948,-334.059"/>
</g>
<!-- AbstractSeq -->
<g id="node3" class="node"><title>AbstractSeq</title>
<polygon fill="none" stroke="black" points="593,-438.5 593,-474.5 679,-474.5 679,-438.5 593,-438.5"/>
<text text-anchor="middle" x="636" y="-452.8" font-family="Times New Roman,serif" font-size="14.00">AbstractSeq</text>
</g>
<!-- AbstractSeq&#45;&gt;AbstractIterable -->
<g id="edge21" class="edge"><title>AbstractSeq&#45;&gt;AbstractIterable</title>
<path fill="none" stroke="black" d="M612.277,-438.313C599.517,-429.069 583.608,-417.543 569.791,-407.532"/>
<polygon fill="black" stroke="black" points="571.656,-404.562 561.505,-401.529 567.549,-410.23 571.656,-404.562"/>
</g>
<!-- Seq -->
<g id="node27" class="node"><title>Seq</title>
<polygon fill="none" stroke="black" points="763,-365.5 763,-401.5 817,-401.5 817,-365.5 763,-365.5"/>
<text text-anchor="middle" x="790" y="-379.8" font-family="Times New Roman,serif" font-size="14.00">Seq</text>
</g>
<!-- AbstractSeq&#45;&gt;Seq -->
<g id="edge22" class="edge"><title>AbstractSeq&#45;&gt;Seq</title>
<path fill="none" stroke="black" d="M672.887,-438.494C697.239,-427.266 729.018,-412.615 753.327,-401.408"/>
<polygon fill="black" stroke="black" points="754.962,-404.508 762.577,-397.143 752.031,-398.151 754.962,-404.508"/>
</g>
<!-- AbstractSet -->
<g id="node4" class="node"><title>AbstractSet</title>
<polygon fill="none" stroke="black" points="222.5,-438.5 222.5,-474.5 305.5,-474.5 305.5,-438.5 222.5,-438.5"/>
<text text-anchor="middle" x="264" y="-452.8" font-family="Times New Roman,serif" font-size="14.00">AbstractSet</text>
</g>
<!-- AbstractSet&#45;&gt;AbstractIterable -->
<g id="edge71" class="edge"><title>AbstractSet&#45;&gt;AbstractIterable</title>
<path fill="none" stroke="black" d="M305.624,-440.519C308.447,-439.63 311.258,-438.782 314,-438 381.883,-418.651 402.705,-419.874 474.908,-402.186"/>
<polygon fill="black" stroke="black" points="476.094,-405.497 484.953,-399.685 474.404,-398.705 476.094,-405.497"/>
</g>
<!-- Set -->
<g id="node29" class="node"><title>Set</title>
<polygon fill="none" stroke="black" points="195,-365.5 195,-401.5 249,-401.5 249,-365.5 195,-365.5"/>
<text text-anchor="middle" x="222" y="-379.8" font-family="Times New Roman,serif" font-size="14.00">Set</text>
</g>
<!-- AbstractSet&#45;&gt;Set -->
<g id="edge72" class="edge"><title>AbstractSet&#45;&gt;Set</title>
<path fill="none" stroke="black" d="M253.833,-438.313C248.88,-429.941 242.821,-419.697 237.323,-410.403"/>
<polygon fill="black" stroke="black" points="240.177,-408.354 232.073,-401.529 234.152,-411.918 240.177,-408.354"/>
</g>
<!-- Traversable -->
<g id="node33" class="node"><title>Traversable</title>
<polygon fill="none" stroke="black" points="612,-219.5 612,-255.5 694,-255.5 694,-219.5 612,-219.5"/>
<text text-anchor="middle" x="653" y="-233.8" font-family="Times New Roman,serif" font-size="14.00">Traversable</text>
</g>
<!-- AbstractTraversable&#45;&gt;Traversable -->
<g id="edge16" class="edge"><title>AbstractTraversable&#45;&gt;Traversable</title>
<path fill="none" stroke="black" d="M606.766,-292.313C614.259,-283.592 623.496,-272.84 631.739,-263.246"/>
<polygon fill="black" stroke="black" points="634.508,-265.395 638.37,-255.529 629.198,-260.833 634.508,-265.395"/>
</g>
<!-- BitSet -->
<g id="node6" class="node"><title>BitSet</title>
<polygon fill="none" stroke="black" points="50,-511.5 50,-547.5 104,-547.5 104,-511.5 50,-511.5"/>
<text text-anchor="middle" x="77" y="-525.8" font-family="Times New Roman,serif" font-size="14.00">BitSet</text>
</g>
<!-- BitSetLike -->
<g id="node7" class="node"><title>BitSetLike</title>
<polygon fill="none" stroke="black" points="40,-438.5 40,-474.5 114,-474.5 114,-438.5 40,-438.5"/>
<text text-anchor="middle" x="77" y="-452.8" font-family="Times New Roman,serif" font-size="14.00">BitSetLike</text>
</g>
<!-- BitSet&#45;&gt;BitSetLike -->
<g id="edge68" class="edge"><title>BitSet&#45;&gt;BitSetLike</title>
<path fill="none" stroke="black" d="M77,-511.313C77,-503.289 77,-493.547 77,-484.569"/>
<polygon fill="black" stroke="black" points="80.5001,-484.529 77,-474.529 73.5001,-484.529 80.5001,-484.529"/>
</g>
<!-- SortedSet -->
<g id="node31" class="node"><title>SortedSet</title>
<polygon fill="none" stroke="black" points="132,-438.5 132,-474.5 204,-474.5 204,-438.5 132,-438.5"/>
<text text-anchor="middle" x="168" y="-452.8" font-family="Times New Roman,serif" font-size="14.00">SortedSet</text>
</g>
<!-- BitSet&#45;&gt;SortedSet -->
<g id="edge67" class="edge"><title>BitSet&#45;&gt;SortedSet</title>
<path fill="none" stroke="black" d="M99.0286,-511.313C110.765,-502.156 125.371,-490.76 138.116,-480.816"/>
<polygon fill="black" stroke="black" points="140.443,-483.44 146.174,-474.529 136.137,-477.921 140.443,-483.44"/>
</g>
<!-- SortedSetLike -->
<g id="node32" class="node"><title>SortedSetLike</title>
<polygon fill="none" stroke="black" points="37,-365.5 37,-401.5 133,-401.5 133,-365.5 37,-365.5"/>
<text text-anchor="middle" x="85" y="-379.8" font-family="Times New Roman,serif" font-size="14.00">SortedSetLike</text>
</g>
<!-- BitSetLike&#45;&gt;SortedSetLike -->
<g id="edge79" class="edge"><title>BitSetLike&#45;&gt;SortedSetLike</title>
<path fill="none" stroke="black" d="M78.9366,-438.313C79.8406,-430.289 80.9383,-420.547 81.95,-411.569"/>
<polygon fill="black" stroke="black" points="85.4395,-411.858 83.0813,-401.529 78.4835,-411.074 85.4395,-411.858"/>
</g>
<!-- GenIterable -->
<g id="node8" class="node"><title>GenIterable</title>
<polygon fill="none" stroke="black" points="412.5,-219.5 412.5,-255.5 493.5,-255.5 493.5,-219.5 412.5,-219.5"/>
<text text-anchor="middle" x="453" y="-233.8" font-family="Times New Roman,serif" font-size="14.00">GenIterable</text>
</g>
<!-- GenIterableLike -->
<g id="node9" class="node"><title>GenIterableLike</title>
<polygon fill="none" stroke="black" points="312.5,-146.5 312.5,-182.5 417.5,-182.5 417.5,-146.5 312.5,-146.5"/>
<text text-anchor="middle" x="365" y="-160.8" font-family="Times New Roman,serif" font-size="14.00">GenIterableLike</text>
</g>
<!-- GenIterable&#45;&gt;GenIterableLike -->
<g id="edge35" class="edge"><title>GenIterable&#45;&gt;GenIterableLike</title>
<path fill="none" stroke="black" d="M431.698,-219.313C420.348,-210.156 406.224,-198.76 393.899,-188.816"/>
<polygon fill="black" stroke="black" points="396.087,-186.084 386.106,-182.529 391.691,-191.532 396.087,-186.084"/>
</g>
<!-- GenTraversable -->
<g id="node16" class="node"><title>GenTraversable</title>
<polygon fill="none" stroke="black" points="435.5,-146.5 435.5,-182.5 540.5,-182.5 540.5,-146.5 435.5,-146.5"/>
<text text-anchor="middle" x="488" y="-160.8" font-family="Times New Roman,serif" font-size="14.00">GenTraversable</text>
</g>
<!-- GenIterable&#45;&gt;GenTraversable -->
<g id="edge36" class="edge"><title>GenIterable&#45;&gt;GenTraversable</title>
<path fill="none" stroke="black" d="M461.473,-219.313C465.557,-211.028 470.544,-200.91 475.088,-191.693"/>
<polygon fill="black" stroke="black" points="478.323,-193.046 479.605,-182.529 472.045,-189.951 478.323,-193.046"/>
</g>
<!-- GenTraversableLike -->
<g id="node17" class="node"><title>GenTraversableLike</title>
<polygon fill="none" stroke="black" points="409.5,-73.5 409.5,-109.5 538.5,-109.5 538.5,-73.5 409.5,-73.5"/>
<text text-anchor="middle" x="474" y="-87.8" font-family="Times New Roman,serif" font-size="14.00">GenTraversableLike</text>
</g>
<!-- GenIterableLike&#45;&gt;GenTraversableLike -->
<g id="edge1" class="edge"><title>GenIterableLike&#45;&gt;GenTraversableLike</title>
<path fill="none" stroke="black" d="M391.108,-146.494C405.563,-137.079 423.713,-125.255 439.343,-115.075"/>
<polygon fill="black" stroke="black" points="441.258,-118.004 447.727,-109.614 437.438,-112.139 441.258,-118.004"/>
</g>
<!-- GenMap -->
<g id="node10" class="node"><title>GenMap</title>
<polygon fill="none" stroke="black" points="367.5,-292.5 367.5,-328.5 432.5,-328.5 432.5,-292.5 367.5,-292.5"/>
<text text-anchor="middle" x="400" y="-306.8" font-family="Times New Roman,serif" font-size="14.00">GenMap</text>
</g>
<!-- GenMap&#45;&gt;GenIterable -->
<g id="edge51" class="edge"><title>GenMap&#45;&gt;GenIterable</title>
<path fill="none" stroke="black" d="M412.83,-292.313C419.21,-283.766 427.045,-273.269 434.097,-263.823"/>
<polygon fill="black" stroke="black" points="437.111,-265.636 440.288,-255.529 431.502,-261.449 437.111,-265.636"/>
</g>
<!-- GenMapLike -->
<g id="node11" class="node"><title>GenMapLike</title>
<polygon fill="none" stroke="black" points="305.5,-219.5 305.5,-255.5 394.5,-255.5 394.5,-219.5 305.5,-219.5"/>
<text text-anchor="middle" x="350" y="-233.8" font-family="Times New Roman,serif" font-size="14.00">GenMapLike</text>
</g>
<!-- GenMap&#45;&gt;GenMapLike -->
<g id="edge50" class="edge"><title>GenMap&#45;&gt;GenMapLike</title>
<path fill="none" stroke="black" d="M387.896,-292.313C381.878,-283.766 374.486,-273.269 367.833,-263.823"/>
<polygon fill="black" stroke="black" points="370.612,-261.69 361.992,-255.529 364.888,-265.72 370.612,-261.69"/>
</g>
<!-- GenMapLike&#45;&gt;GenIterableLike -->
<g id="edge46" class="edge"><title>GenMapLike&#45;&gt;GenIterableLike</title>
<path fill="none" stroke="black" d="M353.631,-219.313C355.326,-211.289 357.384,-201.547 359.281,-192.569"/>
<polygon fill="black" stroke="black" points="362.76,-193.036 361.402,-182.529 355.911,-191.589 362.76,-193.036"/>
</g>
<!-- GenSeq -->
<g id="node12" class="node"><title>GenSeq</title>
<polygon fill="none" stroke="black" points="837,-292.5 837,-328.5 899,-328.5 899,-292.5 837,-292.5"/>
<text text-anchor="middle" x="868" y="-306.8" font-family="Times New Roman,serif" font-size="14.00">GenSeq</text>
</g>
<!-- GenSeq&#45;&gt;GenIterable -->
<g id="edge18" class="edge"><title>GenSeq&#45;&gt;GenIterable</title>
<path fill="none" stroke="black" d="M836.993,-295.154C833.666,-293.951 830.293,-292.866 827,-292 690.021,-255.995 646.24,-286.691 503.694,-255.818"/>
<polygon fill="black" stroke="black" points="504.232,-252.352 493.71,-253.591 502.708,-259.184 504.232,-252.352"/>
</g>
<!-- GenSeqLike -->
<g id="node13" class="node"><title>GenSeqLike</title>
<polygon fill="none" stroke="black" points="838,-219.5 838,-255.5 924,-255.5 924,-219.5 838,-219.5"/>
<text text-anchor="middle" x="881" y="-233.8" font-family="Times New Roman,serif" font-size="14.00">GenSeqLike</text>
</g>
<!-- GenSeq&#45;&gt;GenSeqLike -->
<g id="edge17" class="edge"><title>GenSeq&#45;&gt;GenSeqLike</title>
<path fill="none" stroke="black" d="M871.147,-292.313C872.616,-284.289 874.4,-274.547 876.044,-265.569"/>
<polygon fill="black" stroke="black" points="879.524,-265.996 877.882,-255.529 872.638,-264.735 879.524,-265.996"/>
</g>
<!-- GenSeqLike&#45;&gt;GenIterableLike -->
<g id="edge45" class="edge"><title>GenSeqLike&#45;&gt;GenIterableLike</title>
<path fill="none" stroke="black" d="M837.835,-221.351C834.53,-220.467 831.226,-219.668 828,-219 655.516,-183.296 604.19,-214.703 427.629,-183.107"/>
<polygon fill="black" stroke="black" points="428.221,-179.658 417.754,-181.299 426.96,-186.543 428.221,-179.658"/>
</g>
<!-- GenSet -->
<g id="node14" class="node"><title>GenSet</title>
<polygon fill="none" stroke="black" points="116,-292.5 116,-328.5 174,-328.5 174,-292.5 116,-292.5"/>
<text text-anchor="middle" x="145" y="-306.8" font-family="Times New Roman,serif" font-size="14.00">GenSet</text>
</g>
<!-- GenSet&#45;&gt;GenIterable -->
<g id="edge62" class="edge"><title>GenSet&#45;&gt;GenIterable</title>
<path fill="none" stroke="black" d="M174.152,-295.129C177.1,-293.963 180.083,-292.892 183,-292 274.69,-263.949 305.035,-279.382 402.303,-255.893"/>
<polygon fill="black" stroke="black" points="403.391,-259.229 412.248,-253.414 401.698,-252.437 403.391,-259.229"/>
</g>
<!-- GenSetLike -->
<g id="node15" class="node"><title>GenSetLike</title>
<polygon fill="none" stroke="black" points="57,-219.5 57,-255.5 139,-255.5 139,-219.5 57,-219.5"/>
<text text-anchor="middle" x="98" y="-233.8" font-family="Times New Roman,serif" font-size="14.00">GenSetLike</text>
</g>
<!-- GenSet&#45;&gt;GenSetLike -->
<g id="edge61" class="edge"><title>GenSet&#45;&gt;GenSetLike</title>
<path fill="none" stroke="black" d="M133.623,-292.313C128.023,-283.853 121.158,-273.484 114.955,-264.112"/>
<polygon fill="black" stroke="black" points="117.711,-261.935 109.273,-255.529 111.874,-265.799 117.711,-261.935"/>
</g>
<!-- generic.GenericSetTemplate -->
<g id="node37" class="node"><title>generic.GenericSetTemplate</title>
<polygon fill="none" stroke="black" points="39.5,-146.5 39.5,-182.5 212.5,-182.5 212.5,-146.5 39.5,-146.5"/>
<text text-anchor="middle" x="126" y="-160.8" font-family="Times New Roman,serif" font-size="14.00">generic.GenericSetTemplate</text>
</g>
<!-- GenSet&#45;&gt;generic.GenericSetTemplate -->
<g id="edge63" class="edge"><title>GenSet&#45;&gt;generic.GenericSetTemplate</title>
<path fill="none" stroke="black" d="M115.959,-295.367C88.8242,-281.867 51.9114,-262.624 48,-256 39.6388,-241.84 40.3364,-233.55 48,-219 54.6506,-206.374 65.7749,-196.154 77.5689,-188.163"/>
<polygon fill="black" stroke="black" points="79.6098,-191.015 86.2208,-182.735 75.8898,-185.085 79.6098,-191.015"/>
</g>
<!-- GenSetLike&#45;&gt;GenIterableLike -->
<g id="edge59" class="edge"><title>GenSetLike&#45;&gt;GenIterableLike</title>
<path fill="none" stroke="black" d="M139.1,-221.768C142.101,-220.799 145.091,-219.866 148,-219 199.582,-203.652 258.967,-189.231 302.559,-179.237"/>
<polygon fill="black" stroke="black" points="303.475,-182.619 312.448,-176.984 301.92,-175.794 303.475,-182.619"/>
</g>
<!-- GenTraversable&#45;&gt;GenTraversableLike -->
<g id="edge30" class="edge"><title>GenTraversable&#45;&gt;GenTraversableLike</title>
<path fill="none" stroke="black" d="M484.611,-146.313C483.029,-138.289 481.108,-128.547 479.338,-119.569"/>
<polygon fill="black" stroke="black" points="482.726,-118.663 477.358,-109.529 475.859,-120.017 482.726,-118.663"/>
</g>
<!-- generic.GenericTraversableTemplate -->
<g id="node38" class="node"><title>generic.GenericTraversableTemplate</title>
<polygon fill="none" stroke="black" points="170.5,-73.5 170.5,-109.5 391.5,-109.5 391.5,-73.5 170.5,-73.5"/>
<text text-anchor="middle" x="281" y="-87.8" font-family="Times New Roman,serif" font-size="14.00">generic.GenericTraversableTemplate</text>
</g>
<!-- GenTraversable&#45;&gt;generic.GenericTraversableTemplate -->
<g id="edge31" class="edge"><title>GenTraversable&#45;&gt;generic.GenericTraversableTemplate</title>
<path fill="none" stroke="black" d="M438.418,-146.494C409.062,-136.425 371.677,-123.602 340.706,-112.979"/>
<polygon fill="black" stroke="black" points="341.489,-109.547 330.895,-109.614 339.218,-116.169 341.489,-109.547"/>
</g>
<!-- GenTraversableOnce -->
<g id="node18" class="node"><title>GenTraversableOnce</title>
<polygon fill="none" stroke="black" points="583.5,-0.5 583.5,-36.5 718.5,-36.5 718.5,-0.5 583.5,-0.5"/>
<text text-anchor="middle" x="651" y="-14.8" font-family="Times New Roman,serif" font-size="14.00">GenTraversableOnce</text>
</g>
<!-- GenTraversableLike&#45;&gt;GenTraversableOnce -->
<g id="edge28" class="edge"><title>GenTraversableLike&#45;&gt;GenTraversableOnce</title>
<path fill="none" stroke="black" d="M516.396,-73.4937C541.172,-63.5555 572.636,-50.9343 598.912,-40.3939"/>
<polygon fill="black" stroke="black" points="600.358,-43.585 608.337,-36.6136 597.752,-37.0882 600.358,-43.585"/>
</g>
<!-- Parallelizable -->
<g id="node26" class="node"><title>Parallelizable</title>
<polygon fill="none" stroke="black" points="312,-0.5 312,-36.5 400,-36.5 400,-0.5 312,-0.5"/>
<text text-anchor="middle" x="356" y="-14.8" font-family="Times New Roman,serif" font-size="14.00">Parallelizable</text>
</g>
<!-- GenTraversableLike&#45;&gt;Parallelizable -->
<g id="edge29" class="edge"><title>GenTraversableLike&#45;&gt;Parallelizable</title>
<path fill="none" stroke="black" d="M445.736,-73.4937C429.943,-63.9914 410.074,-52.0363 393.049,-41.7924"/>
<polygon fill="black" stroke="black" points="394.815,-38.7703 384.442,-36.6136 391.206,-44.7682 394.815,-38.7703"/>
</g>
<!-- Iterable&#45;&gt;GenIterable -->
<g id="edge33" class="edge"><title>Iterable&#45;&gt;GenIterable</title>
<path fill="none" stroke="black" d="M473.464,-292.313C470.347,-284.115 466.547,-274.123 463.072,-264.985"/>
<polygon fill="black" stroke="black" points="466.302,-263.632 459.476,-255.529 459.759,-266.12 466.302,-263.632"/>
</g>
<!-- IterableLike -->
<g id="node20" class="node"><title>IterableLike</title>
<polygon fill="none" stroke="black" points="512,-219.5 512,-255.5 594,-255.5 594,-219.5 512,-219.5"/>
<text text-anchor="middle" x="553" y="-233.8" font-family="Times New Roman,serif" font-size="14.00">IterableLike</text>
</g>
<!-- Iterable&#45;&gt;IterableLike -->
<g id="edge34" class="edge"><title>Iterable&#45;&gt;IterableLike</title>
<path fill="none" stroke="black" d="M497.671,-292.313C506.817,-283.417 518.135,-272.409 528.147,-262.672"/>
<polygon fill="black" stroke="black" points="530.763,-265.01 535.491,-255.529 525.883,-259.992 530.763,-265.01"/>
</g>
<!-- Iterable&#45;&gt;Traversable -->
<g id="edge32" class="edge"><title>Iterable&#45;&gt;Traversable</title>
<path fill="none" stroke="black" d="M509.388,-295.775C512.289,-294.478 515.196,-293.2 518,-292 545.642,-280.168 576.828,-267.749 602.258,-257.858"/>
<polygon fill="black" stroke="black" points="603.643,-261.075 611.703,-254.197 601.114,-254.548 603.643,-261.075"/>
</g>
<!-- IterableLike&#45;&gt;GenIterableLike -->
<g id="edge20" class="edge"><title>IterableLike&#45;&gt;GenIterableLike</title>
<path fill="none" stroke="black" d="M511.743,-220.919C484.746,-210.723 449.168,-197.287 419.805,-186.198"/>
<polygon fill="black" stroke="black" points="420.699,-182.794 410.107,-182.535 418.226,-189.343 420.699,-182.794"/>
</g>
<!-- TraversableLike -->
<g id="node34" class="node"><title>TraversableLike</title>
<polygon fill="none" stroke="black" points="585,-146.5 585,-182.5 691,-182.5 691,-146.5 585,-146.5"/>
<text text-anchor="middle" x="638" y="-160.8" font-family="Times New Roman,serif" font-size="14.00">TraversableLike</text>
</g>
<!-- IterableLike&#45;&gt;TraversableLike -->
<g id="edge19" class="edge"><title>IterableLike&#45;&gt;TraversableLike</title>
<path fill="none" stroke="black" d="M573.576,-219.313C584.434,-210.243 597.922,-198.977 609.746,-189.1"/>
<polygon fill="black" stroke="black" points="612.182,-191.626 617.613,-182.529 607.695,-186.253 612.182,-191.626"/>
</g>
<!-- LinearSeq -->
<g id="node21" class="node"><title>LinearSeq</title>
<polygon fill="none" stroke="black" points="814.5,-438.5 814.5,-474.5 887.5,-474.5 887.5,-438.5 814.5,-438.5"/>
<text text-anchor="middle" x="851" y="-452.8" font-family="Times New Roman,serif" font-size="14.00">LinearSeq</text>
</g>
<!-- LinearSeqLike -->
<g id="node22" class="node"><title>LinearSeqLike</title>
<polygon fill="none" stroke="black" points="867.5,-365.5 867.5,-401.5 964.5,-401.5 964.5,-365.5 867.5,-365.5"/>
<text text-anchor="middle" x="916" y="-379.8" font-family="Times New Roman,serif" font-size="14.00">LinearSeqLike</text>
</g>
<!-- LinearSeq&#45;&gt;LinearSeqLike -->
<g id="edge24" class="edge"><title>LinearSeq&#45;&gt;LinearSeqLike</title>
<path fill="none" stroke="black" d="M866.735,-438.313C874.799,-429.505 884.759,-418.625 893.608,-408.958"/>
<polygon fill="black" stroke="black" points="896.239,-411.268 900.41,-401.529 891.076,-406.541 896.239,-411.268"/>
</g>
<!-- LinearSeq&#45;&gt;Seq -->
<g id="edge23" class="edge"><title>LinearSeq&#45;&gt;Seq</title>
<path fill="none" stroke="black" d="M836.234,-438.313C828.741,-429.592 819.504,-418.84 811.261,-409.246"/>
<polygon fill="black" stroke="black" points="813.802,-406.833 804.63,-401.529 808.492,-411.395 813.802,-406.833"/>
</g>
<!-- SeqLike -->
<g id="node28" class="node"><title>SeqLike</title>
<polygon fill="none" stroke="black" points="917,-292.5 917,-328.5 979,-328.5 979,-292.5 917,-292.5"/>
<text text-anchor="middle" x="948" y="-306.8" font-family="Times New Roman,serif" font-size="14.00">SeqLike</text>
</g>
<!-- LinearSeqLike&#45;&gt;SeqLike -->
<g id="edge25" class="edge"><title>LinearSeqLike&#45;&gt;SeqLike</title>
<path fill="none" stroke="black" d="M923.746,-365.313C927.48,-357.028 932.04,-346.91 936.195,-337.693"/>
<polygon fill="black" stroke="black" points="939.407,-339.084 940.325,-328.529 933.025,-336.207 939.407,-339.084"/>
</g>
<!-- LinearSeqOptimized -->
<g id="node23" class="node"><title>LinearSeqOptimized</title>
<polygon fill="none" stroke="black" points="845.5,-511.5 845.5,-547.5 976.5,-547.5 976.5,-511.5 845.5,-511.5"/>
<text text-anchor="middle" x="911" y="-525.8" font-family="Times New Roman,serif" font-size="14.00">LinearSeqOptimized</text>
</g>
<!-- LinearSeqOptimized&#45;&gt;LinearSeqLike -->
<g id="edge37" class="edge"><title>LinearSeqOptimized&#45;&gt;LinearSeqLike</title>
<path fill="none" stroke="black" d="M911.593,-511.416C912.446,-486.841 914.029,-441.253 915.048,-411.927"/>
<polygon fill="black" stroke="black" points="918.558,-411.677 915.408,-401.562 911.563,-411.434 918.558,-411.677"/>
</g>
<!-- Map -->
<g id="node24" class="node"><title>Map</title>
<polygon fill="none" stroke="black" points="413,-365.5 413,-401.5 467,-401.5 467,-365.5 413,-365.5"/>
<text text-anchor="middle" x="440" y="-379.8" font-family="Times New Roman,serif" font-size="14.00">Map</text>
</g>
<!-- Map&#45;&gt;GenMap -->
<g id="edge53" class="edge"><title>Map&#45;&gt;GenMap</title>
<path fill="none" stroke="black" d="M430.317,-365.313C425.6,-356.941 419.829,-346.697 414.593,-337.403"/>
<polygon fill="black" stroke="black" points="417.552,-335.523 409.594,-328.529 411.453,-338.959 417.552,-335.523"/>
</g>
<!-- Map&#45;&gt;Iterable -->
<g id="edge52" class="edge"><title>Map&#45;&gt;Iterable</title>
<path fill="none" stroke="black" d="M449.683,-365.313C454.4,-356.941 460.171,-346.697 465.407,-337.403"/>
<polygon fill="black" stroke="black" points="468.547,-338.959 470.406,-328.529 462.448,-335.523 468.547,-338.959"/>
</g>
<!-- MapLike -->
<g id="node25" class="node"><title>MapLike</title>
<polygon fill="none" stroke="black" points="283,-292.5 283,-328.5 349,-328.5 349,-292.5 283,-292.5"/>
<text text-anchor="middle" x="316" y="-306.8" font-family="Times New Roman,serif" font-size="14.00">MapLike</text>
</g>
<!-- Map&#45;&gt;MapLike -->
<g id="edge54" class="edge"><title>Map&#45;&gt;MapLike</title>
<path fill="none" stroke="black" d="M412.788,-366.919C395.678,-357.122 373.343,-344.333 354.44,-333.51"/>
<polygon fill="black" stroke="black" points="356.169,-330.467 345.752,-328.535 352.691,-336.542 356.169,-330.467"/>
</g>
<!-- MapLike&#45;&gt;GenMapLike -->
<g id="edge48" class="edge"><title>MapLike&#45;&gt;GenMapLike</title>
<path fill="none" stroke="black" d="M324.23,-292.313C328.198,-284.028 333.043,-273.91 337.457,-264.693"/>
<polygon fill="black" stroke="black" points="340.683,-266.06 341.845,-255.529 334.37,-263.036 340.683,-266.06"/>
</g>
<!-- MapLike&#45;&gt;IterableLike -->
<g id="edge47" class="edge"><title>MapLike&#45;&gt;IterableLike</title>
<path fill="none" stroke="black" d="M349.3,-295.096C352.222,-293.993 355.151,-292.944 358,-292 420.623,-271.255 438.743,-274.723 502,-256 502.101,-255.97 502.202,-255.94 502.303,-255.91"/>
<polygon fill="black" stroke="black" points="503.383,-259.24 511.901,-252.94 501.314,-252.553 503.383,-259.24"/>
</g>
<!-- generic.Subtractable -->
<g id="node41" class="node"><title>generic.Subtractable</title>
<polygon fill="none" stroke="black" points="157,-219.5 157,-255.5 287,-255.5 287,-219.5 157,-219.5"/>
<text text-anchor="middle" x="222" y="-233.8" font-family="Times New Roman,serif" font-size="14.00">generic.Subtractable</text>
</g>
<!-- MapLike&#45;&gt;generic.Subtractable -->
<g id="edge49" class="edge"><title>MapLike&#45;&gt;generic.Subtractable</title>
<path fill="none" stroke="black" d="M293.245,-292.313C281.122,-283.156 266.034,-271.76 252.869,-261.816"/>
<polygon fill="black" stroke="black" points="254.634,-258.763 244.545,-255.529 250.415,-264.349 254.634,-258.763"/>
</g>
<!-- Seq&#45;&gt;GenSeq -->
<g id="edge7" class="edge"><title>Seq&#45;&gt;GenSeq</title>
<path fill="none" stroke="black" d="M808.882,-365.313C818.75,-356.33 830.985,-345.193 841.759,-335.386"/>
<polygon fill="black" stroke="black" points="844.253,-337.849 849.292,-328.529 839.541,-332.672 844.253,-337.849"/>
</g>
<!-- Seq&#45;&gt;Iterable -->
<g id="edge6" class="edge"><title>Seq&#45;&gt;Iterable</title>
<path fill="none" stroke="black" d="M762.729,-372.593C754.534,-369.861 745.469,-367.081 737,-365 644.296,-342.223 614.246,-356.874 518.899,-328.816"/>
<polygon fill="black" stroke="black" points="519.738,-325.413 509.153,-325.868 517.711,-332.114 519.738,-325.413"/>
</g>
<!-- Seq&#45;&gt;SeqLike -->
<g id="edge8" class="edge"><title>Seq&#45;&gt;SeqLike</title>
<path fill="none" stroke="black" d="M817.161,-370.295C842.052,-359.109 879.236,-342.4 907.609,-329.651"/>
<polygon fill="black" stroke="black" points="909.176,-332.784 916.862,-325.492 906.306,-326.399 909.176,-332.784"/>
</g>
<!-- SeqLike&#45;&gt;GenSeqLike -->
<g id="edge44" class="edge"><title>SeqLike&#45;&gt;GenSeqLike</title>
<path fill="none" stroke="black" d="M931.781,-292.313C923.469,-283.505 913.202,-272.625 904.08,-262.958"/>
<polygon fill="black" stroke="black" points="906.478,-260.4 897.069,-255.529 901.387,-265.204 906.478,-260.4"/>
</g>
<!-- SeqLike&#45;&gt;IterableLike -->
<g id="edge43" class="edge"><title>SeqLike&#45;&gt;IterableLike</title>
<path fill="none" stroke="black" d="M916.874,-294.844C913.915,-293.767 910.926,-292.794 908,-292 779.354,-257.095 737.93,-285.338 604.066,-255.944"/>
<polygon fill="black" stroke="black" points="604.791,-252.52 594.265,-253.726 603.246,-259.347 604.791,-252.52"/>
</g>
<!-- Set&#45;&gt;GenSet -->
<g id="edge65" class="edge"><title>Set&#45;&gt;GenSet</title>
<path fill="none" stroke="black" d="M203.36,-365.313C193.619,-356.33 181.541,-345.193 170.904,-335.386"/>
<polygon fill="black" stroke="black" points="173.192,-332.735 163.468,-328.529 168.447,-337.881 173.192,-332.735"/>
</g>
<!-- Set&#45;&gt;Iterable -->
<g id="edge64" class="edge"><title>Set&#45;&gt;Iterable</title>
<path fill="none" stroke="black" d="M249.21,-368.372C252.135,-367.126 255.101,-365.972 258,-365 336.596,-338.661 362.009,-354.13 441,-329 441.102,-328.968 441.203,-328.935 441.305,-328.902"/>
<polygon fill="black" stroke="black" points="442.689,-332.124 450.892,-325.419 440.298,-325.544 442.689,-332.124"/>
</g>
<!-- SetLike -->
<g id="node30" class="node"><title>SetLike</title>
<polygon fill="none" stroke="black" points="192.5,-292.5 192.5,-328.5 251.5,-328.5 251.5,-292.5 192.5,-292.5"/>
<text text-anchor="middle" x="222" y="-306.8" font-family="Times New Roman,serif" font-size="14.00">SetLike</text>
</g>
<!-- Set&#45;&gt;SetLike -->
<g id="edge66" class="edge"><title>Set&#45;&gt;SetLike</title>
<path fill="none" stroke="black" d="M222,-365.313C222,-357.289 222,-347.547 222,-338.569"/>
<polygon fill="black" stroke="black" points="225.5,-338.529 222,-328.529 218.5,-338.529 225.5,-338.529"/>
</g>
<!-- SetLike&#45;&gt;GenSetLike -->
<g id="edge57" class="edge"><title>SetLike&#45;&gt;GenSetLike</title>
<path fill="none" stroke="black" d="M192.299,-292.494C175.703,-282.991 154.824,-271.036 136.933,-260.792"/>
<polygon fill="black" stroke="black" points="138.306,-257.545 127.889,-255.614 134.827,-263.62 138.306,-257.545"/>
</g>
<!-- SetLike&#45;&gt;IterableLike -->
<g id="edge56" class="edge"><title>SetLike&#45;&gt;IterableLike</title>
<path fill="none" stroke="black" d="M251.719,-298.543C258.942,-296.146 266.692,-293.793 274,-292 373.633,-267.553 402.439,-280.742 502,-256 502.102,-255.975 502.204,-255.949 502.307,-255.923"/>
<polygon fill="black" stroke="black" points="503.276,-259.287 511.988,-253.258 501.418,-252.538 503.276,-259.287"/>
</g>
<!-- SetLike&#45;&gt;generic.Subtractable -->
<g id="edge58" class="edge"><title>SetLike&#45;&gt;generic.Subtractable</title>
<path fill="none" stroke="black" d="M222,-292.313C222,-284.289 222,-274.547 222,-265.569"/>
<polygon fill="black" stroke="black" points="225.5,-265.529 222,-255.529 218.5,-265.529 225.5,-265.529"/>
</g>
<!-- SortedSet&#45;&gt;Set -->
<g id="edge77" class="edge"><title>SortedSet&#45;&gt;Set</title>
<path fill="none" stroke="black" d="M181.072,-438.313C187.638,-429.679 195.719,-419.055 202.96,-409.534"/>
<polygon fill="black" stroke="black" points="205.781,-411.607 209.048,-401.529 200.209,-407.37 205.781,-411.607"/>
</g>
<!-- SortedSet&#45;&gt;SortedSetLike -->
<g id="edge78" class="edge"><title>SortedSet&#45;&gt;SortedSetLike</title>
<path fill="none" stroke="black" d="M147.908,-438.313C137.305,-429.243 124.135,-417.977 112.589,-408.1"/>
<polygon fill="black" stroke="black" points="114.781,-405.37 104.907,-401.529 110.231,-410.689 114.781,-405.37"/>
</g>
<!-- SortedSetLike&#45;&gt;SetLike -->
<g id="edge70" class="edge"><title>SortedSetLike&#45;&gt;SetLike</title>
<path fill="none" stroke="black" d="M117.815,-365.494C137.448,-355.319 162.507,-342.332 183.129,-331.645"/>
<polygon fill="black" stroke="black" points="184.988,-334.624 192.256,-326.915 181.767,-328.409 184.988,-334.624"/>
</g>
<!-- generic.Sorted -->
<g id="node40" class="node"><title>generic.Sorted</title>
<polygon fill="none" stroke="black" points="0,-292.5 0,-328.5 98,-328.5 98,-292.5 0,-292.5"/>
<text text-anchor="middle" x="49" y="-306.8" font-family="Times New Roman,serif" font-size="14.00">generic.Sorted</text>
</g>
<!-- SortedSetLike&#45;&gt;generic.Sorted -->
<g id="edge69" class="edge"><title>SortedSetLike&#45;&gt;generic.Sorted</title>
<path fill="none" stroke="black" d="M76.2854,-365.313C72.0846,-357.028 66.9545,-346.91 62.2811,-337.693"/>
<polygon fill="black" stroke="black" points="65.2784,-335.865 57.6343,-328.529 59.0351,-339.031 65.2784,-335.865"/>
</g>
<!-- Traversable&#45;&gt;GenTraversable -->
<g id="edge41" class="edge"><title>Traversable&#45;&gt;GenTraversable</title>
<path fill="none" stroke="black" d="M613.478,-219.494C590.585,-209.643 561.566,-197.156 537.202,-186.672"/>
<polygon fill="black" stroke="black" points="538.34,-183.351 527.771,-182.614 535.573,-189.781 538.34,-183.351"/>
</g>
<!-- Traversable&#45;&gt;TraversableLike -->
<g id="edge40" class="edge"><title>Traversable&#45;&gt;TraversableLike</title>
<path fill="none" stroke="black" d="M649.369,-219.313C647.674,-211.289 645.616,-201.547 643.719,-192.569"/>
<polygon fill="black" stroke="black" points="647.089,-191.589 641.598,-182.529 640.24,-193.036 647.089,-191.589"/>
</g>
<!-- TraversableLike&#45;&gt;GenTraversableLike -->
<g id="edge15" class="edge"><title>TraversableLike&#45;&gt;GenTraversableLike</title>
<path fill="none" stroke="black" d="M598.718,-146.494C575.963,-136.643 547.12,-124.156 522.904,-113.672"/>
<polygon fill="black" stroke="black" points="524.097,-110.375 513.53,-109.614 521.316,-116.798 524.097,-110.375"/>
</g>
<!-- TraversableOnce -->
<g id="node35" class="node"><title>TraversableOnce</title>
<polygon fill="none" stroke="black" points="595,-73.5 595,-109.5 707,-109.5 707,-73.5 595,-73.5"/>
<text text-anchor="middle" x="651" y="-87.8" font-family="Times New Roman,serif" font-size="14.00">TraversableOnce</text>
</g>
<!-- TraversableLike&#45;&gt;TraversableOnce -->
<g id="edge14" class="edge"><title>TraversableLike&#45;&gt;TraversableOnce</title>
<path fill="none" stroke="black" d="M641.147,-146.313C642.616,-138.289 644.4,-128.547 646.044,-119.569"/>
<polygon fill="black" stroke="black" points="649.524,-119.996 647.882,-109.529 642.638,-118.735 649.524,-119.996"/>
</g>
<!-- generic.FilterMonadic -->
<g id="node36" class="node"><title>generic.FilterMonadic</title>
<polygon fill="none" stroke="black" points="725,-73.5 725,-109.5 863,-109.5 863,-73.5 725,-73.5"/>
<text text-anchor="middle" x="794" y="-87.8" font-family="Times New Roman,serif" font-size="14.00">generic.FilterMonadic</text>
</g>
<!-- TraversableLike&#45;&gt;generic.FilterMonadic -->
<g id="edge13" class="edge"><title>TraversableLike&#45;&gt;generic.FilterMonadic</title>
<path fill="none" stroke="black" d="M675.366,-146.494C696.915,-136.686 724.204,-124.266 747.176,-113.811"/>
<polygon fill="black" stroke="black" points="748.747,-116.942 756.398,-109.614 745.847,-110.57 748.747,-116.942"/>
</g>
<!-- generic.HasNewBuilder -->
<g id="node39" class="node"><title>generic.HasNewBuilder</title>
<polygon fill="none" stroke="black" points="418.5,-0.5 418.5,-36.5 565.5,-36.5 565.5,-0.5 418.5,-0.5"/>
<text text-anchor="middle" x="492" y="-14.8" font-family="Times New Roman,serif" font-size="14.00">generic.HasNewBuilder</text>
</g>
<!-- TraversableLike&#45;&gt;generic.HasNewBuilder -->
<g id="edge12" class="edge"><title>TraversableLike&#45;&gt;generic.HasNewBuilder</title>
<path fill="none" stroke="black" d="M620.949,-146.43C602.705,-128.193 572.893,-98.4673 547,-73 537.258,-63.4183 526.493,-52.9255 517.088,-43.7901"/>
<polygon fill="black" stroke="black" points="519.497,-41.2506 509.883,-36.7981 514.622,-46.2741 519.497,-41.2506"/>
</g>
<!-- TraversableOnce&#45;&gt;GenTraversableOnce -->
<g id="edge9" class="edge"><title>TraversableOnce&#45;&gt;GenTraversableOnce</title>
<path fill="none" stroke="black" d="M651,-73.3129C651,-65.2895 651,-55.5475 651,-46.5691"/>
<polygon fill="black" stroke="black" points="654.5,-46.5288 651,-36.5288 647.5,-46.5289 654.5,-46.5288"/>
</g>
<!-- generic.GenericSetTemplate&#45;&gt;generic.GenericTraversableTemplate -->
<g id="edge60" class="edge"><title>generic.GenericSetTemplate&#45;&gt;generic.GenericTraversableTemplate</title>
<path fill="none" stroke="black" d="M163.126,-146.494C184.537,-136.686 211.652,-124.266 234.476,-113.811"/>
<polygon fill="black" stroke="black" points="236.005,-116.96 243.639,-109.614 233.09,-110.596 236.005,-116.96"/>
</g>
<!-- generic.GenericTraversableTemplate&#45;&gt;generic.HasNewBuilder -->
<g id="edge42" class="edge"><title>generic.GenericTraversableTemplate&#45;&gt;generic.HasNewBuilder</title>
<path fill="none" stroke="black" d="M331.54,-73.4937C361.593,-63.3811 399.901,-50.4906 431.55,-39.8411"/>
<polygon fill="black" stroke="black" points="432.78,-43.1201 441.141,-36.6136 430.547,-36.4856 432.78,-43.1201"/>
</g>
<!-- immutable.BitSet -->
<g id="node42" class="node"><title>immutable.BitSet</title>
<polygon fill="none" stroke="black" points="133.5,-584.5 133.5,-620.5 244.5,-620.5 244.5,-584.5 133.5,-584.5"/>
<text text-anchor="middle" x="189" y="-598.8" font-family="Times New Roman,serif" font-size="14.00">immutable.BitSet</text>
</g>
<!-- immutable.BitSet&#45;&gt;AbstractSet -->
<g id="edge86" class="edge"><title>immutable.BitSet&#45;&gt;AbstractSet</title>
<path fill="none" stroke="black" d="M226.498,-584.407C240.964,-575.718 255.945,-563.641 264,-548 274.029,-528.526 273.135,-503.423 270.24,-484.597"/>
<polygon fill="black" stroke="black" points="273.655,-483.81 268.428,-474.594 266.767,-485.058 273.655,-483.81"/>
</g>
<!-- immutable.BitSet&#45;&gt;BitSet -->
<g id="edge88" class="edge"><title>immutable.BitSet&#45;&gt;BitSet</title>
<path fill="none" stroke="black" d="M162.173,-584.494C147.321,-575.079 128.671,-563.255 112.611,-553.075"/>
<polygon fill="black" stroke="black" points="114.316,-550.012 103.996,-547.614 110.568,-555.924 114.316,-550.012"/>
</g>
<!-- immutable.SortedSet -->
<g id="node50" class="node"><title>immutable.SortedSet</title>
<polygon fill="none" stroke="black" points="122.5,-511.5 122.5,-547.5 255.5,-547.5 255.5,-511.5 122.5,-511.5"/>
<text text-anchor="middle" x="189" y="-525.8" font-family="Times New Roman,serif" font-size="14.00">immutable.SortedSet</text>
</g>
<!-- immutable.BitSet&#45;&gt;immutable.SortedSet -->
<g id="edge87" class="edge"><title>immutable.BitSet&#45;&gt;immutable.SortedSet</title>
<path fill="none" stroke="black" d="M189,-584.313C189,-576.289 189,-566.547 189,-557.569"/>
<polygon fill="black" stroke="black" points="192.5,-557.529 189,-547.529 185.5,-557.529 192.5,-557.529"/>
</g>
<!-- immutable.Iterable -->
<g id="node43" class="node"><title>immutable.Iterable</title>
<polygon fill="none" stroke="black" points="609.5,-365.5 609.5,-401.5 728.5,-401.5 728.5,-365.5 609.5,-365.5"/>
<text text-anchor="middle" x="669" y="-379.8" font-family="Times New Roman,serif" font-size="14.00">immutable.Iterable</text>
</g>
<!-- immutable.Iterable&#45;&gt;Iterable -->
<g id="edge27" class="edge"><title>immutable.Iterable&#45;&gt;Iterable</title>
<path fill="none" stroke="black" d="M617.194,-365.449C590.138,-356.245 556.366,-344.293 518.936,-329.23"/>
<polygon fill="black" stroke="black" points="519.925,-325.854 509.343,-325.334 517.29,-332.34 519.925,-325.854"/>
</g>
<!-- immutable.Traversable -->
<g id="node51" class="node"><title>immutable.Traversable</title>
<polygon fill="none" stroke="black" points="675.5,-292.5 675.5,-328.5 818.5,-328.5 818.5,-292.5 675.5,-292.5"/>
<text text-anchor="middle" x="747" y="-306.8" font-family="Times New Roman,serif" font-size="14.00">immutable.Traversable</text>
</g>
<!-- immutable.Iterable&#45;&gt;immutable.Traversable -->
<g id="edge26" class="edge"><title>immutable.Iterable&#45;&gt;immutable.Traversable</title>
<path fill="none" stroke="black" d="M687.882,-365.313C697.75,-356.33 709.985,-345.193 720.759,-335.386"/>
<polygon fill="black" stroke="black" points="723.253,-337.849 728.292,-328.529 718.541,-332.672 723.253,-337.849"/>
</g>
<!-- immutable.LinearSeq -->
<g id="node44" class="node"><title>immutable.LinearSeq</title>
<polygon fill="none" stroke="black" points="684,-511.5 684,-547.5 818,-547.5 818,-511.5 684,-511.5"/>
<text text-anchor="middle" x="751" y="-525.8" font-family="Times New Roman,serif" font-size="14.00">immutable.LinearSeq</text>
</g>
<!-- immutable.LinearSeq&#45;&gt;LinearSeq -->
<g id="edge11" class="edge"><title>immutable.LinearSeq&#45;&gt;LinearSeq</title>
<path fill="none" stroke="black" d="M774.952,-511.494C787.968,-502.253 804.25,-490.692 818.406,-480.642"/>
<polygon fill="black" stroke="black" points="820.769,-483.257 826.896,-474.614 816.716,-477.549 820.769,-483.257"/>
</g>
<!-- immutable.Seq -->
<g id="node48" class="node"><title>immutable.Seq</title>
<polygon fill="none" stroke="black" points="697.5,-438.5 697.5,-474.5 796.5,-474.5 796.5,-438.5 697.5,-438.5"/>
<text text-anchor="middle" x="747" y="-452.8" font-family="Times New Roman,serif" font-size="14.00">immutable.Seq</text>
</g>
<!-- immutable.LinearSeq&#45;&gt;immutable.Seq -->
<g id="edge10" class="edge"><title>immutable.LinearSeq&#45;&gt;immutable.Seq</title>
<path fill="none" stroke="black" d="M750.032,-511.313C749.58,-503.289 749.031,-493.547 748.525,-484.569"/>
<polygon fill="black" stroke="black" points="752.016,-484.316 747.959,-474.529 745.027,-484.71 752.016,-484.316"/>
</g>
<!-- immutable.List -->
<g id="node45" class="node"><title>immutable.List</title>
<polygon fill="none" stroke="black" points="702,-584.5 702,-620.5 800,-620.5 800,-584.5 702,-584.5"/>
<text text-anchor="middle" x="751" y="-598.8" font-family="Times New Roman,serif" font-size="14.00">immutable.List</text>
</g>
<!-- immutable.List&#45;&gt;AbstractSeq -->
<g id="edge80" class="edge"><title>immutable.List&#45;&gt;AbstractSeq</title>
<path fill="none" stroke="black" d="M718.641,-584.271C703.8,-575.088 686.903,-562.654 675,-548 659.731,-529.201 649.423,-503.52 643.259,-484.317"/>
<polygon fill="black" stroke="black" points="646.584,-483.221 640.332,-474.668 639.886,-485.253 646.584,-483.221"/>
</g>
<!-- immutable.List&#45;&gt;LinearSeqOptimized -->
<g id="edge82" class="edge"><title>immutable.List&#45;&gt;LinearSeqOptimized</title>
<path fill="none" stroke="black" d="M789.324,-584.494C811.524,-574.643 839.664,-562.156 863.289,-551.672"/>
<polygon fill="black" stroke="black" points="864.713,-554.869 872.434,-547.614 861.874,-548.471 864.713,-554.869"/>
</g>
<!-- immutable.List&#45;&gt;immutable.LinearSeq -->
<g id="edge81" class="edge"><title>immutable.List&#45;&gt;immutable.LinearSeq</title>
<path fill="none" stroke="black" d="M751,-584.313C751,-576.289 751,-566.547 751,-557.569"/>
<polygon fill="black" stroke="black" points="754.5,-557.529 751,-547.529 747.5,-557.529 754.5,-557.529"/>
</g>
<!-- immutable.Map -->
<g id="node46" class="node"><title>immutable.Map</title>
<polygon fill="none" stroke="black" points="436.5,-438.5 436.5,-474.5 539.5,-474.5 539.5,-438.5 436.5,-438.5"/>
<text text-anchor="middle" x="488" y="-452.8" font-family="Times New Roman,serif" font-size="14.00">immutable.Map</text>
</g>
<!-- immutable.Map&#45;&gt;Map -->
<g id="edge84" class="edge"><title>immutable.Map&#45;&gt;Map</title>
<path fill="none" stroke="black" d="M476.381,-438.313C470.603,-429.766 463.506,-419.269 457.12,-409.823"/>
<polygon fill="black" stroke="black" points="460.013,-407.853 451.512,-401.529 454.214,-411.774 460.013,-407.853"/>
</g>
<!-- immutable.Map&#45;&gt;immutable.Iterable -->
<g id="edge83" class="edge"><title>immutable.Map&#45;&gt;immutable.Iterable</title>
<path fill="none" stroke="black" d="M531.354,-438.494C556.69,-428.555 588.865,-415.934 615.735,-405.394"/>
<polygon fill="black" stroke="black" points="617.341,-408.524 625.372,-401.614 614.785,-402.007 617.341,-408.524"/>
</g>
<!-- immutable.MapLike -->
<g id="node47" class="node"><title>immutable.MapLike</title>
<polygon fill="none" stroke="black" points="267.5,-365.5 267.5,-401.5 394.5,-401.5 394.5,-365.5 267.5,-365.5"/>
<text text-anchor="middle" x="331" y="-379.8" font-family="Times New Roman,serif" font-size="14.00">immutable.MapLike</text>
</g>
<!-- immutable.Map&#45;&gt;immutable.MapLike -->
<g id="edge85" class="edge"><title>immutable.Map&#45;&gt;immutable.MapLike</title>
<path fill="none" stroke="black" d="M450.395,-438.494C428.708,-428.686 401.243,-416.266 378.124,-405.811"/>
<polygon fill="black" stroke="black" points="379.397,-402.545 368.843,-401.614 376.512,-408.923 379.397,-402.545"/>
</g>
<!-- immutable.MapLike&#45;&gt;MapLike -->
<g id="edge55" class="edge"><title>immutable.MapLike&#45;&gt;MapLike</title>
<path fill="none" stroke="black" d="M327.369,-365.313C325.674,-357.289 323.616,-347.547 321.719,-338.569"/>
<polygon fill="black" stroke="black" points="325.089,-337.589 319.598,-328.529 318.24,-339.036 325.089,-337.589"/>
</g>
<!-- immutable.Seq&#45;&gt;Seq -->
<g id="edge3" class="edge"><title>immutable.Seq&#45;&gt;Seq</title>
<path fill="none" stroke="black" d="M757.409,-438.313C762.532,-429.853 768.813,-419.484 774.488,-410.112"/>
<polygon fill="black" stroke="black" points="777.5,-411.896 779.687,-401.529 771.513,-408.269 777.5,-411.896"/>
</g>
<!-- immutable.Seq&#45;&gt;immutable.Iterable -->
<g id="edge2" class="edge"><title>immutable.Seq&#45;&gt;immutable.Iterable</title>
<path fill="none" stroke="black" d="M728.118,-438.313C718.25,-429.33 706.015,-418.193 695.241,-408.386"/>
<polygon fill="black" stroke="black" points="697.459,-405.672 687.708,-401.529 692.747,-410.849 697.459,-405.672"/>
</g>
<!-- immutable.Set -->
<g id="node49" class="node"><title>immutable.Set</title>
<polygon fill="none" stroke="black" points="323.5,-438.5 323.5,-474.5 418.5,-474.5 418.5,-438.5 323.5,-438.5"/>
<text text-anchor="middle" x="371" y="-452.8" font-family="Times New Roman,serif" font-size="14.00">immutable.Set</text>
</g>
<!-- immutable.Set&#45;&gt;Set -->
<g id="edge74" class="edge"><title>immutable.Set&#45;&gt;Set</title>
<path fill="none" stroke="black" d="M334.823,-438.488C314.62,-428.961 288.791,-416.739 258.283,-402.117"/>
<polygon fill="black" stroke="black" points="259.642,-398.887 249.112,-397.717 256.614,-405.198 259.642,-398.887"/>
</g>
<!-- immutable.Set&#45;&gt;immutable.Iterable -->
<g id="edge73" class="edge"><title>immutable.Set&#45;&gt;immutable.Iterable</title>
<path fill="none" stroke="black" d="M418.568,-440.288C421.413,-439.486 424.239,-438.717 427,-438 500.046,-419.035 521.792,-419.581 599.445,-402.063"/>
<polygon fill="black" stroke="black" points="600.23,-405.474 609.199,-399.835 598.671,-398.65 600.23,-405.474"/>
</g>
<!-- immutable.SortedSet&#45;&gt;SortedSet -->
<g id="edge76" class="edge"><title>immutable.SortedSet&#45;&gt;SortedSet</title>
<path fill="none" stroke="black" d="M183.916,-511.313C181.518,-503.202 178.599,-493.336 175.92,-484.277"/>
<polygon fill="black" stroke="black" points="179.229,-483.125 173.037,-474.529 172.517,-485.111 179.229,-483.125"/>
</g>
<!-- immutable.SortedSet&#45;&gt;immutable.Set -->
<g id="edge75" class="edge"><title>immutable.SortedSet&#45;&gt;immutable.Set</title>
<path fill="none" stroke="black" d="M232.594,-511.494C258.181,-501.512 290.706,-488.824 317.796,-478.255"/>
<polygon fill="black" stroke="black" points="319.087,-481.509 327.131,-474.614 316.543,-474.987 319.087,-481.509"/>
</g>
<!-- immutable.Traversable&#45;&gt;scala.Immutable -->
<g id="edge39" class="edge"><title>immutable.Traversable&#45;&gt;scala.Immutable</title>
<path fill="none" stroke="black" d="M751.599,-292.313C753.77,-284.202 756.41,-274.336 758.834,-265.277"/>
<polygon fill="black" stroke="black" points="762.239,-266.094 761.443,-255.529 755.477,-264.284 762.239,-266.094"/>
</g>
<!-- immutable.Traversable&#45;&gt;Traversable -->
<g id="edge38" class="edge"><title>immutable.Traversable&#45;&gt;Traversable</title>
<path fill="none" stroke="black" d="M724.245,-292.313C712.122,-283.156 697.034,-271.76 683.869,-261.816"/>
<polygon fill="black" stroke="black" points="685.634,-258.763 675.545,-255.529 681.415,-264.349 685.634,-258.763"/>
</g>
</g>
</svg>
