<?xml version="1.0" encoding="utf-8"?>
<!-- Generator: Adobe Illustrator 18.0.0, SVG Export Plug-In . SVG Version: 6.00 Build 0)  -->
<!DOCTYPE svg PUBLIC "-//W3C//DTD SVG 1.1//EN" "http://www.w3.org/Graphics/SVG/1.1/DTD/svg11.dtd">
<svg version="1.1" id="Layer_1" xmlns="http://www.w3.org/2000/svg" xmlns:xlink="http://www.w3.org/1999/xlink" x="0px" y="0px"
	 viewBox="0 0 623.9 220.5" enable-background="new 0 0 623.9 220.5" xml:space="preserve">
<g>
	<g>
		
			<rect x="32.7" y="98.9" fill="#FFFFFF" stroke="#000000" stroke-width="0.75" stroke-miterlimit="10" width="80.8" height="28.8"/>
		<g>
			<path d="M68.7,117.9v-9.7H70v9.7H68.7z"/>
			<path d="M72.1,117.9v-7h1.1v1c0.5-0.8,1.3-1.2,2.2-1.2c0.4,0,0.8,0.1,1.2,0.2s0.6,0.4,0.8,0.6c0.2,0.2,0.3,0.5,0.4,0.9
				c0,0.2,0.1,0.6,0.1,1.2v4.3h-1.2v-4.3c0-0.5,0-0.8-0.1-1.1c-0.1-0.2-0.3-0.4-0.5-0.6c-0.2-0.1-0.5-0.2-0.8-0.2
				c-0.5,0-0.9,0.2-1.3,0.5s-0.6,0.9-0.6,1.8v3.8H72.1z"/>
		</g>
	</g>
	<g>
		<path d="M148.7,96.6v-6.1h-1.1v-0.9h1.1v-0.7c0-0.5,0-0.8,0.1-1.1c0.1-0.3,0.3-0.6,0.6-0.8c0.3-0.2,0.7-0.3,1.2-0.3
			c0.3,0,0.7,0,1.1,0.1l-0.2,1c-0.2,0-0.5-0.1-0.7-0.1c-0.4,0-0.6,0.1-0.8,0.2c-0.2,0.2-0.2,0.4-0.2,0.9v0.6h1.4v0.9h-1.4v6.1H148.7
			z"/>
		<path d="M156.4,96.6h-1.2V89c-0.3,0.3-0.7,0.5-1.1,0.8c-0.5,0.3-0.9,0.5-1.3,0.6v-1.2c0.7-0.3,1.2-0.7,1.7-1.1
			c0.5-0.4,0.9-0.9,1.1-1.3h0.8V96.6z"/>
	</g>
	<g>
		<path d="M307.6,48.2v-6.1h-1.1v-0.9h1.1v-0.7c0-0.5,0-0.8,0.1-1.1c0.1-0.3,0.3-0.6,0.6-0.8c0.3-0.2,0.7-0.3,1.2-0.3
			c0.3,0,0.7,0,1.1,0.1l-0.2,1c-0.2,0-0.5-0.1-0.7-0.1c-0.4,0-0.6,0.1-0.8,0.2c-0.2,0.2-0.2,0.4-0.2,0.9v0.6h1.4v0.9h-1.4v6.1H307.6
			z"/>
		<path d="M317,47.1v1.1h-6.4c0-0.3,0-0.6,0.1-0.8c0.2-0.4,0.4-0.9,0.8-1.3c0.4-0.4,0.9-0.9,1.6-1.5c1.1-0.9,1.8-1.6,2.1-2.1
			c0.4-0.5,0.6-1,0.6-1.4c0-0.5-0.2-0.9-0.5-1.2c-0.3-0.3-0.8-0.5-1.3-0.5c-0.6,0-1,0.2-1.4,0.5s-0.5,0.8-0.5,1.4l-1.2-0.1
			c0.1-0.9,0.4-1.6,0.9-2.1s1.3-0.7,2.2-0.7c0.9,0,1.7,0.3,2.2,0.8s0.8,1.2,0.8,1.9c0,0.4-0.1,0.8-0.2,1.1c-0.2,0.4-0.4,0.8-0.8,1.2
			s-1,1-1.8,1.7c-0.7,0.6-1.2,1-1.4,1.2c-0.2,0.2-0.4,0.4-0.5,0.6H317z"/>
	</g>
	<g>
		<path d="M307.6,188.3v-6.1h-1.1v-0.9h1.1v-0.7c0-0.5,0-0.8,0.1-1.1c0.1-0.3,0.3-0.6,0.6-0.8c0.3-0.2,0.7-0.3,1.2-0.3
			c0.3,0,0.7,0,1.1,0.1l-0.2,1c-0.2,0-0.5-0.1-0.7-0.1c-0.4,0-0.6,0.1-0.8,0.2c-0.2,0.2-0.2,0.4-0.2,0.9v0.6h1.4v0.9h-1.4v6.1H307.6
			z"/>
		<path d="M314.6,188.3V186h-4.2v-1.1l4.4-6.3h1v6.3h1.3v1.1h-1.3v2.3H314.6z M314.6,184.9v-4.4l-3,4.4H314.6z"/>
	</g>
	<g>
		<path d="M467.8,96.6v-6.1h-1.1v-0.9h1.1v-0.7c0-0.5,0-0.8,0.1-1.1c0.1-0.3,0.3-0.6,0.6-0.8s0.7-0.3,1.2-0.3c0.3,0,0.7,0,1.1,0.1
			l-0.2,1c-0.2,0-0.5-0.1-0.7-0.1c-0.4,0-0.6,0.1-0.8,0.2c-0.1,0.2-0.2,0.4-0.2,0.9v0.6h1.4v0.9h-1.4v6.1H467.8z"/>
		<path d="M470.9,94.1l1.2-0.2c0.1,0.7,0.4,1.2,0.7,1.5c0.3,0.3,0.7,0.4,1.2,0.4c0.6,0,1-0.2,1.4-0.6c0.4-0.4,0.6-0.9,0.6-1.4
			c0-0.5-0.2-1-0.5-1.4s-0.8-0.5-1.4-0.5c-0.2,0-0.5,0-0.8,0.1l0.1-1c0.1,0,0.1,0,0.2,0c0.5,0,1-0.1,1.4-0.4
			c0.4-0.3,0.6-0.7,0.6-1.2c0-0.4-0.1-0.8-0.4-1.1c-0.3-0.3-0.7-0.4-1.1-0.4c-0.5,0-0.9,0.1-1.2,0.4c-0.3,0.3-0.5,0.7-0.6,1.3
			l-1.2-0.2c0.1-0.8,0.5-1.4,1-1.9s1.2-0.7,1.9-0.7c0.5,0,1,0.1,1.5,0.3s0.8,0.5,1,0.9c0.2,0.4,0.4,0.8,0.4,1.3
			c0,0.4-0.1,0.8-0.3,1.1c-0.2,0.3-0.6,0.6-1,0.8c0.6,0.1,1,0.4,1.3,0.8c0.3,0.4,0.5,0.9,0.5,1.6c0,0.8-0.3,1.6-0.9,2.2
			s-1.4,0.9-2.3,0.9c-0.9,0-1.6-0.3-2.1-0.8C471.3,95.5,471,94.9,470.9,94.1z"/>
	</g>
	<g>
		
			<rect x="192.5" y="98.9" fill="#FFFFFF" stroke="#000000" stroke-width="0.75" stroke-miterlimit="10" width="80.8" height="28.8"/>
		<g>
			<path d="M203.3,117.9v-9.7h3.6c0.7,0,1.3,0.1,1.8,0.3c0.4,0.2,0.8,0.5,1.1,0.9c0.3,0.4,0.4,0.8,0.4,1.3c0,0.4-0.1,0.8-0.3,1.2
				c-0.2,0.4-0.6,0.7-1,0.9c0.6,0.2,1,0.5,1.4,0.9s0.5,0.9,0.5,1.5c0,0.5-0.1,0.9-0.3,1.3c-0.2,0.4-0.4,0.7-0.7,0.9
				c-0.3,0.2-0.6,0.4-1.1,0.5c-0.4,0.1-0.9,0.2-1.6,0.2H203.3z M204.6,112.3h2.1c0.6,0,1,0,1.2-0.1c0.3-0.1,0.6-0.3,0.7-0.5
				s0.2-0.5,0.2-0.8c0-0.3-0.1-0.6-0.2-0.9c-0.2-0.2-0.4-0.4-0.7-0.5c-0.3-0.1-0.8-0.1-1.5-0.1h-1.9V112.3z M204.6,116.8h2.4
				c0.4,0,0.7,0,0.9,0c0.3-0.1,0.5-0.1,0.7-0.3c0.2-0.1,0.4-0.3,0.5-0.5c0.1-0.2,0.2-0.5,0.2-0.8c0-0.4-0.1-0.7-0.3-0.9
				c-0.2-0.3-0.4-0.5-0.8-0.6c-0.3-0.1-0.8-0.2-1.4-0.2h-2.2V116.8z"/>
			<path d="M212.3,117.9v-7h1.1v1.1c0.3-0.5,0.5-0.8,0.8-1c0.2-0.2,0.5-0.2,0.8-0.2c0.4,0,0.8,0.1,1.2,0.4l-0.4,1.1
				c-0.3-0.2-0.6-0.3-0.9-0.3c-0.3,0-0.5,0.1-0.7,0.2s-0.4,0.4-0.4,0.7c-0.1,0.4-0.2,0.9-0.2,1.4v3.7H212.3z"/>
			<path d="M216.4,114.4c0-1.3,0.4-2.3,1.1-2.9c0.6-0.5,1.3-0.8,2.2-0.8c1,0,1.8,0.3,2.4,1c0.6,0.6,0.9,1.5,0.9,2.6
				c0,0.9-0.1,1.6-0.4,2.1s-0.7,0.9-1.2,1.2c-0.5,0.3-1.1,0.4-1.7,0.4c-1,0-1.8-0.3-2.4-0.9S216.4,115.6,216.4,114.4z M217.6,114.4
				c0,0.9,0.2,1.6,0.6,2s0.9,0.7,1.5,0.7c0.6,0,1.1-0.2,1.5-0.7s0.6-1.1,0.6-2.1c0-0.9-0.2-1.5-0.6-2c-0.4-0.4-0.9-0.7-1.5-0.7
				c-0.6,0-1.1,0.2-1.5,0.7S217.6,113.5,217.6,114.4z"/>
			<path d="M228.9,117.1c-0.4,0.4-0.9,0.6-1.3,0.8c-0.4,0.2-0.8,0.2-1.3,0.2c-0.8,0-1.4-0.2-1.8-0.6s-0.6-0.9-0.6-1.4
				c0-0.3,0.1-0.7,0.2-0.9s0.4-0.5,0.6-0.7c0.3-0.2,0.5-0.3,0.9-0.4c0.2-0.1,0.6-0.1,1.1-0.2c1-0.1,1.7-0.3,2.1-0.4
				c0-0.2,0-0.3,0-0.3c0-0.5-0.1-0.8-0.3-1c-0.3-0.3-0.8-0.4-1.4-0.4c-0.6,0-1,0.1-1.2,0.3c-0.3,0.2-0.5,0.5-0.6,1l-1.2-0.2
				c0.1-0.5,0.3-0.9,0.5-1.2s0.6-0.5,1.1-0.7c0.5-0.2,1-0.2,1.6-0.2c0.6,0,1.1,0.1,1.5,0.2c0.4,0.1,0.7,0.3,0.8,0.5
				c0.2,0.2,0.3,0.5,0.4,0.8c0,0.2,0.1,0.6,0.1,1.1v1.6c0,1.1,0,1.8,0.1,2.1c0.1,0.3,0.2,0.6,0.3,0.8h-1.2
				C229,117.7,229,117.4,228.9,117.1z M228.8,114.4c-0.4,0.2-1.1,0.3-1.9,0.5c-0.5,0.1-0.8,0.1-1,0.2s-0.4,0.2-0.5,0.4
				c-0.1,0.2-0.2,0.4-0.2,0.6c0,0.3,0.1,0.6,0.4,0.8c0.2,0.2,0.6,0.3,1.1,0.3c0.5,0,0.9-0.1,1.2-0.3c0.4-0.2,0.6-0.5,0.8-0.8
				c0.1-0.3,0.2-0.7,0.2-1.2V114.4z"/>
			<path d="M236.4,117.9v-0.9c-0.4,0.7-1.1,1-2,1c-0.6,0-1.1-0.2-1.5-0.5s-0.8-0.7-1.1-1.3s-0.4-1.2-0.4-1.9c0-0.7,0.1-1.3,0.4-1.9
				s0.6-1,1.1-1.3c0.5-0.3,1-0.5,1.6-0.5c0.4,0,0.8,0.1,1.1,0.3c0.3,0.2,0.6,0.4,0.8,0.7v-3.5h1.2v9.7H236.4z M232.7,114.4
				c0,0.9,0.2,1.6,0.6,2c0.4,0.4,0.8,0.7,1.3,0.7c0.5,0,1-0.2,1.3-0.6c0.4-0.4,0.5-1.1,0.5-2c0-1-0.2-1.7-0.6-2.1
				c-0.4-0.5-0.8-0.7-1.4-0.7c-0.5,0-1,0.2-1.3,0.6S232.7,113.5,232.7,114.4z"/>
			<path d="M244,115.4l1.2,0.2c-0.1,0.8-0.5,1.4-1,1.9c-0.5,0.5-1.2,0.7-1.9,0.7c-1,0-1.7-0.3-2.3-0.9s-0.9-1.5-0.9-2.7
				c0-0.8,0.1-1.4,0.4-2s0.6-1,1.1-1.3c0.5-0.3,1.1-0.4,1.7-0.4c0.8,0,1.4,0.2,1.9,0.6c0.5,0.4,0.8,0.9,0.9,1.6l-1.2,0.2
				c-0.1-0.5-0.3-0.8-0.6-1.1c-0.3-0.2-0.6-0.4-1-0.4c-0.6,0-1.1,0.2-1.5,0.6c-0.4,0.4-0.6,1.1-0.6,2c0,0.9,0.2,1.6,0.5,2.1
				c0.4,0.4,0.8,0.6,1.4,0.6c0.5,0,0.9-0.1,1.2-0.4S243.9,116,244,115.4z"/>
			<path d="M250.8,117.1c-0.4,0.4-0.9,0.6-1.3,0.8c-0.4,0.2-0.8,0.2-1.3,0.2c-0.8,0-1.4-0.2-1.8-0.6s-0.6-0.9-0.6-1.4
				c0-0.3,0.1-0.7,0.2-0.9s0.4-0.5,0.6-0.7c0.3-0.2,0.5-0.3,0.9-0.4c0.2-0.1,0.6-0.1,1.1-0.2c1-0.1,1.7-0.3,2.1-0.4
				c0-0.2,0-0.3,0-0.3c0-0.5-0.1-0.8-0.3-1c-0.3-0.3-0.8-0.4-1.4-0.4c-0.6,0-1,0.1-1.2,0.3c-0.3,0.2-0.5,0.5-0.6,1l-1.2-0.2
				c0.1-0.5,0.3-0.9,0.5-1.2s0.6-0.5,1.1-0.7c0.5-0.2,1-0.2,1.6-0.2c0.6,0,1.1,0.1,1.5,0.2c0.4,0.1,0.7,0.3,0.8,0.5
				c0.2,0.2,0.3,0.5,0.4,0.8c0,0.2,0.1,0.6,0.1,1.1v1.6c0,1.1,0,1.8,0.1,2.1c0.1,0.3,0.2,0.6,0.3,0.8H251
				C250.9,117.7,250.8,117.4,250.8,117.1z M250.7,114.4c-0.4,0.2-1.1,0.3-1.9,0.5c-0.5,0.1-0.8,0.1-1,0.2s-0.4,0.2-0.5,0.4
				c-0.1,0.2-0.2,0.4-0.2,0.6c0,0.3,0.1,0.6,0.4,0.8c0.2,0.2,0.6,0.3,1.1,0.3c0.5,0,0.9-0.1,1.2-0.3c0.4-0.2,0.6-0.5,0.8-0.8
				c0.1-0.3,0.2-0.7,0.2-1.2V114.4z"/>
			<path d="M253.3,115.8l1.2-0.2c0.1,0.5,0.3,0.8,0.6,1.1c0.3,0.3,0.7,0.4,1.3,0.4c0.5,0,1-0.1,1.2-0.3c0.3-0.2,0.4-0.5,0.4-0.8
				c0-0.3-0.1-0.5-0.4-0.6c-0.2-0.1-0.6-0.2-1.2-0.4c-0.9-0.2-1.5-0.4-1.8-0.6s-0.6-0.4-0.8-0.7c-0.2-0.3-0.3-0.6-0.3-0.9
				c0-0.3,0.1-0.6,0.2-0.9s0.3-0.5,0.6-0.7c0.2-0.1,0.4-0.3,0.8-0.3c0.3-0.1,0.7-0.1,1-0.1c0.6,0,1,0.1,1.5,0.2
				c0.4,0.2,0.7,0.4,0.9,0.6s0.3,0.6,0.4,1.1l-1.2,0.2c-0.1-0.4-0.2-0.6-0.5-0.8s-0.6-0.3-1.1-0.3c-0.5,0-0.9,0.1-1.2,0.3
				c-0.2,0.2-0.4,0.4-0.4,0.6c0,0.2,0,0.3,0.1,0.4c0.1,0.1,0.2,0.2,0.5,0.3c0.1,0,0.5,0.1,1.1,0.3c0.8,0.2,1.4,0.4,1.8,0.6
				c0.3,0.1,0.6,0.4,0.8,0.6c0.2,0.3,0.3,0.6,0.3,1c0,0.4-0.1,0.8-0.3,1.1c-0.2,0.4-0.6,0.6-1,0.8c-0.4,0.2-0.9,0.3-1.5,0.3
				c-0.9,0-1.6-0.2-2.1-0.6C253.7,117.2,253.4,116.6,253.3,115.8z"/>
			<path d="M263.1,116.9l0.2,1.1c-0.3,0.1-0.6,0.1-0.9,0.1c-0.4,0-0.8-0.1-1-0.2c-0.2-0.1-0.4-0.3-0.5-0.5c-0.1-0.2-0.1-0.7-0.1-1.4
				v-4h-0.9v-0.9h0.9v-1.7l1.2-0.7v2.5h1.2v0.9h-1.2v4.1c0,0.3,0,0.6,0.1,0.7c0,0.1,0.1,0.2,0.2,0.2c0.1,0.1,0.2,0.1,0.4,0.1
				C262.7,116.9,262.9,116.9,263.1,116.9z"/>
		</g>
	</g>
	<g>
		
			<rect x="352.2" y="98.9" fill="#FFFFFF" stroke="#000000" stroke-width="0.75" stroke-miterlimit="10" width="80.8" height="28.8"/>
		<g>
			<path d="M374.4,117.9v-9.7h1.9l2.3,6.9c0.2,0.6,0.4,1.1,0.5,1.4c0.1-0.4,0.3-0.9,0.5-1.6l2.3-6.8h1.7v9.7h-1.2v-8.1l-2.8,8.1
				h-1.2l-2.8-8.3v8.3H374.4z"/>
			<path d="M390.4,115.7l1.2,0.2c-0.2,0.7-0.6,1.3-1.1,1.7s-1.2,0.6-2,0.6c-1,0-1.8-0.3-2.4-1c-0.6-0.6-0.9-1.5-0.9-2.7
				c0-1.2,0.3-2.1,0.9-2.8c0.6-0.7,1.4-1,2.4-1c0.9,0,1.7,0.3,2.3,1s0.9,1.5,0.9,2.7c0,0.1,0,0.2,0,0.3h-5.2c0,0.8,0.3,1.4,0.7,1.8
				s0.9,0.6,1.5,0.6c0.4,0,0.8-0.1,1.1-0.3C390,116.6,390.2,116.2,390.4,115.7z M386.5,113.8h3.9c-0.1-0.6-0.2-1-0.5-1.3
				c-0.4-0.5-0.9-0.7-1.5-0.7c-0.5,0-1,0.2-1.4,0.5S386.5,113.1,386.5,113.8z"/>
			<path d="M393.1,117.9v-7h1.1v1.1c0.3-0.5,0.5-0.8,0.8-1c0.2-0.2,0.5-0.2,0.8-0.2c0.4,0,0.8,0.1,1.2,0.4l-0.4,1.1
				c-0.3-0.2-0.6-0.3-0.9-0.3c-0.3,0-0.5,0.1-0.7,0.2c-0.2,0.2-0.4,0.4-0.4,0.7c-0.1,0.4-0.2,0.9-0.2,1.4v3.7H393.1z"/>
			<path d="M397.4,118.5l1.2,0.2c0,0.4,0.2,0.6,0.4,0.8c0.3,0.2,0.7,0.3,1.2,0.3c0.6,0,1-0.1,1.3-0.3c0.3-0.2,0.5-0.5,0.6-0.9
				c0.1-0.2,0.1-0.8,0.1-1.5c-0.5,0.6-1.2,0.9-1.9,0.9c-1,0-1.7-0.3-2.2-1c-0.5-0.7-0.8-1.5-0.8-2.5c0-0.7,0.1-1.3,0.4-1.9
				c0.2-0.6,0.6-1,1.1-1.3c0.5-0.3,1-0.5,1.6-0.5c0.8,0,1.5,0.3,2.1,1v-0.8h1.1v6.1c0,1.1-0.1,1.9-0.3,2.3s-0.6,0.8-1.1,1.1
				c-0.5,0.3-1.1,0.4-1.8,0.4c-0.8,0-1.5-0.2-2-0.6S397.4,119.3,397.4,118.5z M398.4,114.3c0,0.9,0.2,1.6,0.5,2
				c0.4,0.4,0.8,0.6,1.4,0.6c0.5,0,1-0.2,1.4-0.6c0.4-0.4,0.6-1.1,0.6-2c0-0.9-0.2-1.5-0.6-1.9c-0.4-0.4-0.8-0.7-1.4-0.7
				c-0.5,0-1,0.2-1.4,0.6C398.6,112.8,398.4,113.5,398.4,114.3z"/>
			<path d="M410,115.7l1.2,0.2c-0.2,0.7-0.6,1.3-1.1,1.7s-1.2,0.6-2,0.6c-1,0-1.8-0.3-2.4-1c-0.6-0.6-0.9-1.5-0.9-2.7
				c0-1.2,0.3-2.1,0.9-2.8s1.4-1,2.4-1c0.9,0,1.7,0.3,2.3,1c0.6,0.6,0.9,1.5,0.9,2.7c0,0.1,0,0.2,0,0.3H406c0,0.8,0.3,1.4,0.7,1.8
				s0.9,0.6,1.5,0.6c0.4,0,0.8-0.1,1.1-0.3C409.6,116.6,409.8,116.2,410,115.7z M406.1,113.8h3.9c-0.1-0.6-0.2-1-0.5-1.3
				c-0.4-0.5-0.9-0.7-1.5-0.7c-0.5,0-1,0.2-1.4,0.5S406.1,113.1,406.1,113.8z"/>
		</g>
	</g>
	<g>
		<rect x="512" y="98.9" fill="#FFFFFF" stroke="#000000" stroke-width="0.75" stroke-miterlimit="10" width="80.8" height="28.8"/>
		<g>
			<path d="M542.1,113.2c0-1.6,0.4-2.9,1.3-3.8s2-1.4,3.4-1.4c0.9,0,1.7,0.2,2.4,0.6s1.3,1,1.6,1.8c0.4,0.8,0.6,1.6,0.6,2.6
				c0,1-0.2,1.9-0.6,2.6c-0.4,0.8-1,1.4-1.7,1.8c-0.7,0.4-1.5,0.6-2.4,0.6c-0.9,0-1.7-0.2-2.5-0.7c-0.7-0.4-1.3-1-1.6-1.8
				S542.1,114.1,542.1,113.2z M543.4,113.2c0,1.2,0.3,2.1,0.9,2.8s1.4,1,2.4,1c1,0,1.8-0.3,2.4-1c0.6-0.7,0.9-1.6,0.9-2.9
				c0-0.8-0.1-1.5-0.4-2.1c-0.3-0.6-0.7-1-1.2-1.4c-0.5-0.3-1.1-0.5-1.7-0.5c-0.9,0-1.7,0.3-2.3,0.9
				C543.7,110.7,543.4,111.8,543.4,113.2z"/>
			<path d="M557.5,117.9v-1c-0.5,0.8-1.3,1.2-2.2,1.2c-0.4,0-0.8-0.1-1.2-0.2c-0.4-0.2-0.6-0.4-0.8-0.6c-0.2-0.2-0.3-0.5-0.4-0.9
				c0-0.2-0.1-0.6-0.1-1.1v-4.4h1.2v3.9c0,0.6,0,1,0.1,1.3c0.1,0.3,0.2,0.6,0.5,0.7c0.2,0.2,0.5,0.3,0.9,0.3s0.7-0.1,1-0.3
				s0.5-0.4,0.7-0.7c0.1-0.3,0.2-0.8,0.2-1.4v-3.8h1.2v7H557.5z"/>
			<path d="M563,116.9l0.2,1.1c-0.3,0.1-0.6,0.1-0.9,0.1c-0.4,0-0.8-0.1-1-0.2c-0.2-0.1-0.4-0.3-0.5-0.5c-0.1-0.2-0.1-0.7-0.1-1.4
				v-4h-0.9v-0.9h0.9v-1.7l1.2-0.7v2.5h1.2v0.9h-1.2v4.1c0,0.3,0,0.6,0.1,0.7s0.1,0.2,0.2,0.2c0.1,0.1,0.2,0.1,0.4,0.1
				C562.6,116.9,562.8,116.9,563,116.9z"/>
		</g>
	</g>
	<g id="XMLID_1_">
		<line fill="#FFFFFF" x1="113.5" y1="113.4" x2="192.6" y2="113.4"/>
		<g>
			<g>
				<polygon points="184,113.9 184,115.7 192.6,113.4 184,111.1 184,113 113.5,113 113.5,113.9 				"/>
			</g>
		</g>
	</g>
	<g id="XMLID_2_">
		<line fill="#FFFFFF" x1="432.9" y1="113.4" x2="511.9" y2="113.4"/>
		<g>
			<g>
				<polygon points="503.3,113.9 503.3,115.7 511.9,113.4 503.3,111.1 503.3,113 432.9,113 432.9,113.9 				"/>
			</g>
		</g>
	</g>
	<g>
		<g>
			<g>
				<path d="M385.1,94.3l-1,1.5l8.3,3.1l-5.7-6.9l-1,1.5c0,0-0.1,0-0.2-0.1c-0.1,0-0.1-0.1-0.2-0.1c0,0-0.1-0.1-0.1-0.1l-0.5-0.3
					c-0.2-0.2-0.4-0.3-0.6-0.4c-0.4-0.3-0.9-0.6-1.3-0.8c-0.9-0.6-1.8-1.1-2.7-1.7c-7.4-4.7-16.5-9.7-26.9-13.5
					c-10.3-3.9-21.9-6.5-33.6-7.3c-2.9-0.3-5.9-0.2-8.8-0.3c-1.5-0.1-2.9,0.1-4.4,0.2c-1.5,0.1-2.9,0.1-4.3,0.3
					c-1.4,0.2-2.9,0.3-4.3,0.5c-1.4,0.1-2.8,0.4-4.2,0.6c-2.8,0.4-5.5,1.1-8.2,1.6c-5.3,1.3-10.5,2.9-15.2,4.7
					c-4.7,1.8-9.1,3.7-13,5.8c-3.9,2-7.4,4-10.5,5.9c-3,1.9-5.6,3.7-7.7,5.2c-2.1,1.5-3.6,2.8-4.7,3.7c-1.1,0.9-1.6,1.4-1.6,1.4
					l0.7,0.7c0,0,0.5-0.5,1.6-1.4c1-0.9,2.6-2.1,4.7-3.7c2-1.5,4.6-3.3,7.6-5.2c3-1.9,6.5-3.9,10.4-5.9c3.9-2,8.2-3.9,12.9-5.7
					c4.7-1.8,9.8-3.3,15.1-4.6c2.7-0.5,5.4-1.2,8.2-1.6c1.4-0.2,2.8-0.5,4.2-0.6c1.4-0.1,2.8-0.3,4.3-0.4c1.4-0.2,2.9-0.2,4.3-0.3
					c1.4,0,2.9-0.2,4.3-0.1c2.9,0,5.8,0,8.7,0.3c11.6,0.8,23.1,3.4,33.4,7.3c10.3,3.8,19.3,8.7,26.7,13.4c0.9,0.6,1.8,1.2,2.7,1.7
					c0.4,0.3,0.9,0.6,1.3,0.8c0.2,0.1,0.4,0.3,0.6,0.4l0.5,0.3c0,0,0.1,0.1,0.1,0.1c0.1,0.1,0.1,0.1,0.2,0.1
					C385.1,94.3,385.1,94.3,385.1,94.3z"/>
			</g>
		</g>
	</g>
	<g>
		<g>
			<g>
				<path d="M385.7,133l1,1.5l5.7-6.9l-8.3,3.1l1,1.5c0,0-0.1,0-0.2,0.1c-0.1,0-0.1,0.1-0.2,0.1c0,0-0.1,0.1-0.1,0.1l-0.5,0.3
					c-0.2,0.2-0.4,0.3-0.6,0.4c-0.4,0.3-0.9,0.6-1.3,0.8c-0.9,0.6-1.8,1.1-2.7,1.7c-7.4,4.7-16.4,9.6-26.7,13.4
					c-10.2,3.9-21.7,6.5-33.4,7.3c-2.9,0.3-5.8,0.2-8.7,0.3c-1.5,0.1-2.9-0.1-4.3-0.1c-1.4-0.1-2.9-0.1-4.3-0.3
					c-1.4-0.1-2.8-0.3-4.3-0.4c-1.4-0.1-2.8-0.4-4.2-0.6c-2.8-0.4-5.5-1.1-8.2-1.6c-5.3-1.3-10.4-2.8-15.1-4.6
					c-4.7-1.8-9-3.7-12.9-5.7c-3.9-2-7.4-4-10.4-5.9c-3-1.9-5.6-3.7-7.6-5.2c-2.1-1.5-3.6-2.8-4.7-3.7c-1-0.9-1.6-1.4-1.6-1.4
					l-0.7,0.7c0,0,0.5,0.5,1.6,1.4c1.1,0.9,2.6,2.2,4.7,3.7c2.1,1.5,4.6,3.3,7.7,5.2c3,1.9,6.5,3.9,10.5,5.9c3.9,2,8.3,3.9,13,5.8
					c4.7,1.8,9.8,3.3,15.2,4.7c2.7,0.5,5.4,1.2,8.2,1.6c1.4,0.2,2.8,0.5,4.2,0.6c1.4,0.1,2.9,0.3,4.3,0.5c1.4,0.2,2.9,0.2,4.3,0.3
					c1.5,0,2.9,0.2,4.4,0.2c2.9,0,5.9,0,8.8-0.3c11.7-0.8,23.3-3.4,33.6-7.3c10.4-3.8,19.4-8.8,26.9-13.5c0.9-0.6,1.8-1.2,2.7-1.7
					c0.4-0.3,0.9-0.6,1.3-0.8c0.2-0.1,0.4-0.3,0.6-0.4l0.5-0.3c0,0,0.1-0.1,0.1-0.1c0.1-0.1,0.1-0.1,0.2-0.1
					C385.6,133.1,385.7,133,385.7,133z"/>
			</g>
		</g>
	</g>
</g>
</svg>
